*******************************************************************************
               Freakshow Apocalypse - The Unholy Sideshow (2012)
*******************************************************************************

-------------------------------------------------------------------------------
                              General Information
-------------------------------------------------------------------------------
Type.................: Movie



Video Format.........: AVI
Video Bitrate........: 4067
Resolution...........: 720 x 540
Color................: 8 bit
FPS..................: 29.970
Source...............: DVD 4x3
Original Format......: NTSC
Genre................: Horror
IMDb Rating..........: None yet
Movie Information....: http://www.imdb.com/title/tt2189858

-------------------------------------------------------------------------------
                               Post Information
-------------------------------------------------------------------------------
Posted by............: RadioResearch
Posted on............: 2/3/2013

-------------------------------------------------------------------------------
                                 Release Notes
-------------------------------------------------------------------------------
A brand new epic myth of our modern apocalypse. The Order of Mystery, a secret 
society of necromancers dating back to ancient Sumeria, control the fate of the 
world. It is their duty to push back the armies of the abyss every 200 years 
through a series of ritual sacrifices. The Unholy Sideshow, a family of serial 
killer, black magician sideshow freaks, are next for the job that has prevented 
the coming of the dead for thousands of years. A bitter feud between Malerkus 
and Lazari, two mad scientist black magicians, causes the ritual to be delayed, 
setting off the balance of the living and the dead. It is up to The Amazing 
Barry Silver, a young magician and fakir, to stop them. With the help of The 
Enigma, a gum-shoe detective and guardian of The Order, Barry must stop Malerkus 
and Lazari before time runs out. As society has grown weak and deceitful so has 
the Order of Mystery. Witness the beginning of this action filled saga where 
evil battles evil while the fate of mankind lies in the hands of the twisted and 
deranged. If the ritual is not set in motion, and the Unholy Sideshow is not up 
to the task, the gates of the abyss will cover the earth in darkness. In a world 
of fire breathing vampires, modified killers and an onslaught of zombies, no one 
is safe. When it's evil vs. evil who can you trust?

Enjoy!

RadioResearch

1.  Please vote on IMDB and rate the movies I post.
2.  Please seed as much as you can; don't leech and run.
3.  A thank you now and then would be greatly appreciated.

General
Complete name                            : G:AVIFreakshow Apocalypse - The 
Unholy Sideshow (2012)5_26_2012 8_56 A_Title1.avi
Format                                   : AVI
Format/Info                              : Audio Video Interleave
Format profile                           : OpenDML
File size                                : 1.98 GiB
Duration                                 : 1h 9mn
Overall bit rate                         : 4 067 Kbps
Movie name                               : 5_26_2012_8_56_A
Director                                 : Matthew_Broomfield
Genre                                    : Horror
Writing application                      : MEncoder 5.0
Writing library                          : [= DigiArty videodll! =]

Video
ID                                       : 0
Format                                   : MPEG-4 Visual
Format profile                           : Simple@L1
Format settings, BVOP                    : No
Format settings, QPel                    : No
Format settings, GMC                     : No warppoints
Format settings, Matrix                  : Default (H.263)
Codec ID                                 : DX50
Codec ID/Hint                            : DivX 5
Duration                                 : 1h 9mn
Bit rate                                 : 3 869 Kbps
Width                                    : 720 pixels
Height                                   : 540 pixels
Display aspect ratio                     : 4:3
Frame rate                               : 29.970 fps
Color space                              : YUV
Chroma subsampling                       : 4:2:0
Bit depth                                : 8 bits
Scan type                                : Progressive
Compression mode                         : Lossy
Bits/(Pixel*Frame)                       : 0.332
Stream size                              : 1.88 GiB (95%)
Writing library                          : Lavc54.71.100

Audio
ID                                       : 1
Format                                   : AC-3
Format/Info                              : Audio Coding 3
Mode extension                           : CM (complete main)
Format settings, Endianness              : Big
Codec ID                                 : 2000
Duration                                 : 1h 9mn
Bit rate mode                            : Constant
Bit rate                                 : 192 Kbps
Channel(s)                               : 2 channels
Channel positions                        : Front: L R
Sampling rate                            : 48.0 KHz
Bit depth                                : 16 bits
Compression mode                         : Lossy
Stream size                              : 95.5 MiB (5%)
Alignment                                : Split accross interleaves
Interleave, duration                     : 500 ms (14.98 video frames)
Interleave, preload duration             : 500 ms




-------------------------------------------------------------------------------
Generated with Cool NFO Creator - http://fly.to/coolbeans
-------------------------------------------------------------------------------
